# xmcd
#
# Track frame offsets: 
#        150
#        23233
#        48215
#        67102
#        90046
#        115108
#        137839
#        162699
#        183839
#        214074
#        237968
#        255724
#
# Disc length: 3724 seconds
#
# Revision: 0
# Processed by: cddbd v1.5.2PL0 Copyright (c) Steve Scherf et al.
# Submitted via: ExactAudioCopy v1.3
#
DISCID=a00e8a0c
DTITLE=John Primer - The Soul of a Blues Man
DYEAR=2019
DGENRE=Blues
TTITLE0=Slip Away (feat. Billy Flynn)
TTITLE1=Help Me Through the Day (feat. Billy Flynn)
TTITLE2=Meet Me in the Morning (feat. Billy Flynn)
TTITLE3=You Shouldn't Tell a Lie (feat. Billy Flynn)
TTITLE4=Nothing Takes the Place of You (feat. Billy Flynn)
TTITLE5=Stagger Lee (feat. Billy Flynn)
TTITLE6=Please Don't Leave Me (feat. Billy Flynn)
TTITLE7=Get Your Money Where You Spend Your Time (feat. Billy Flynn)
TTITLE8=Rainy Night in Georgia (feat. Billy Flynn)
TTITLE9=Meet Me in the Park (feat. Billy Flynn)
TTITLE10=Members Only (feat. Billy Flynn)
TTITLE11=Still Called the Blues (feat. Billy Flynn)
EXTD=
EXTT0=
EXTT1=
EXTT2=
EXTT3=
EXTT4=
EXTT5=
EXTT6=
EXTT7=
EXTT8=
EXTT9=
EXTT10=
EXTT11=
PLAYORDER=
